<svg  viewBox="0 0 40 40"  xmlns="http://www.w3.org/2000/svg">
<path fill-rule="evenodd" clip-rule="evenodd" d="M38.4851 3.91917C39.459 3.91917 40.1796 4.79458 39.9605 5.71142L35.6325 25.513C35.5339 25.9642 35.1218 26.287 34.6446 26.287H11.6548C11.1775 26.287 10.7654 25.9642 10.6668 25.513L6.33883 5.71142L6.09122 4.67528C6.03683 4.44769 5.90254 4.25422 5.72098 4.11997C5.65618 4.07206 5.58536 4.03169 5.51001 4C5.3859 3.94781 5.24948 3.91917 5.10738 3.91917H0V0H7.87011C8.31471 0 8.707 0.280989 8.83623 0.692022L9.8509 3.91917H38.4851ZM8.4668 29.1501C6.97151 30.2413 5.99996 32.0072 5.99996 34C5.99996 37.3137 8.68626 40 12 40C15.3137 40 18 37.3137 18 34C18 32.5981 17.5192 31.3085 16.7135 30.287C15.6147 28.8941 13.9118 28 12 28C11.8841 28 11.769 28.0033 11.6548 28.0098C10.4666 28.0772 9.37096 28.4903 8.4668 29.1501ZM27.2865 30.287C26.4808 31.3085 26 32.5981 26 34C26 37.3137 28.6863 40 32 40C35.3137 40 38 37.3137 38 34C38 32.4426 37.4066 31.0238 36.4336 29.9573C35.9294 29.4046 35.3231 28.9465 34.6446 28.6128C33.8468 28.2204 32.9491 28 32 28C30.0882 28 28.3852 28.8941 27.2865 30.287ZM32.2894 22.0755C32.3504 21.981 32.3953 21.8752 32.4203 21.7612L35.206 9.01553C35.2314 8.89968 35.2344 8.78514 35.2182 8.67564C35.1688 8.34103 34.9403 8.05343 34.622 7.91917C34.499 7.86732 34.3627 7.83834 34.2181 7.83834H12.0817C11.9371 7.83834 11.8008 7.86732 11.6778 7.91917C11.3591 8.0536 11.1304 8.34173 11.0814 8.67686C11.0654 8.78611 11.0685 8.90035 11.0938 9.0159L13.8849 21.7615C13.9086 21.8699 13.9504 21.9709 14.0069 22.0618C14.0595 22.1464 14.1247 22.2222 14.1999 22.287C14.38 22.4425 14.617 22.5352 14.8727 22.5352H31.4323C31.688 22.5352 31.925 22.4425 32.1051 22.287C32.1762 22.2257 32.2384 22.1546 32.2894 22.0755ZM12 36C13.1045 36 14 35.1046 14 34C14 32.8954 13.1045 32 12 32C10.8954 32 9.99997 32.8954 9.99997 34C9.99997 35.1046 10.8954 36 12 36ZM32 36C33.1046 36 34 35.1046 34 34C34 32.8954 33.1046 32 32 32C30.8954 32 30 32.8954 30 34C30 35.1046 30.8954 36 32 36Z"/>
</svg>
