<svg viewBox="0 0 43 43" fill="none" xmlns="http://www.w3.org/2000/svg">
<path fill-rule="evenodd" clip-rule="evenodd" d="M3.15035 1.63591L41.0086 39.4941C41.4137 39.8993 41.4397 40.5774 41.0086 41.0085C40.5904 41.4267 39.9124 41.4267 39.4942 41.0085L1.63594 3.15032C1.23078 2.74516 1.20483 2.06702 1.63594 1.63591C2.05413 1.21772 2.73216 1.21772 3.15035 1.63591Z"/>
<path fill-rule="evenodd" clip-rule="evenodd" d="M1.63594 39.4942L39.4942 1.63598C39.8993 1.23083 40.5775 1.20488 41.0086 1.63599C41.4268 2.05418 41.4268 2.7322 41.0086 3.15039L3.15035 41.0086C2.74519 41.4137 2.06705 41.4397 1.63594 41.0086C1.21775 40.5904 1.21775 39.9124 1.63594 39.4942Z"/>
</svg>
