<svg  viewBox="0 0 40 40" fill="none" xmlns="http://www.w3.org/2000/svg">
<path fill-rule="evenodd" clip-rule="evenodd" d="M0 0H40V9.17064C40 10.8891 39.1175 12.4872 37.663 13.4025L27.7233 19.6573C26.9155 20.1657 26.4182 21.0116 26.3888 21.9277L25.9064 36.9553C25.8602 38.3938 24.3553 39.3141 23.0538 38.6998L15.5165 35.1425C14.8111 34.8096 14.3636 34.097 14.3702 33.317L14.4449 24.454C14.4677 21.7526 12.9599 19.2455 10.4909 17.8794L2.57923 13.5016C0.987738 12.621 0 10.9456 0 9.12669V0ZM18.3514 22.979C17.8902 19.5174 15.7537 16.4148 12.5138 14.6221L4 9.91117V3.77568H36V9.91117L25.5045 16.5157C23.6195 17.7019 22.4592 19.6759 22.3906 21.8133L22 33.9811L18.3791 32.2722L18.4448 24.4841C18.449 23.9769 18.4174 23.4742 18.3514 22.979Z" fill="black"/>
</svg>
