<svg viewBox="0 0 27 55" xmlns="http://www.w3.org/2000/svg">
<path d="M0.646897 28.2709C0.283218 27.8879 0.280108 27.2881 0.639797 26.9013L25.0946 0.605787C25.4729 0.198968 26.1105 0.178651 26.5141 0.560386C26.9129 0.937509 26.9333 1.56568 26.5597 1.96775L2.74054 27.6022L26.5437 52.641C26.9273 53.0445 26.9074 53.6836 26.4993 54.0624C26.0979 54.435 25.4714 54.4152 25.0943 54.0181L0.646897 28.2709Z" />
<path d="M0.646897 28.2709C0.283218 27.8879 0.280108 27.2881 0.639797 26.9013L25.0946 0.605787C25.4729 0.198968 26.1105 0.178651 26.5141 0.560386C26.9129 0.937509 26.9333 1.56568 26.5597 1.96775L2.74054 27.6022L26.5437 52.641C26.9273 53.0445 26.9074 53.6836 26.4993 54.0624C26.0979 54.435 25.4714 54.4152 25.0943 54.0181L0.646897 28.2709Z" />
</svg>
