<svg  viewBox="0 0 40 40" fill="none" xmlns="http://www.w3.org/2000/svg">
<path fill-rule="evenodd" clip-rule="evenodd" d="M20 14C22.7614 14 25 11.7614 25 9C25 6.23858 22.7614 4 20 4C17.2386 4 15 6.23858 15 9C15 11.7614 17.2386 14 20 14ZM20 18C24.9706 18 29 13.9706 29 9C29 4.02944 24.9706 0 20 0C15.0294 0 11 4.02944 11 9C11 13.9706 15.0294 18 20 18Z" fill="black"/>
<path fill-rule="evenodd" clip-rule="evenodd" d="M33.4164 35C32.758 32.7918 31.5584 30.7594 29.8995 29.1005C27.274 26.475 23.713 25 20 25C16.287 25 12.726 26.475 10.1005 29.1005C8.4416 30.7594 7.242 32.7918 6.58357 35L33.4164 35ZM37.55 35C36.8025 31.7207 35.1442 28.6883 32.7279 26.2721C29.3523 22.8964 24.7739 21 20 21C15.2261 21 10.6477 22.8964 7.27208 26.2721C4.85585 28.6883 3.1975 31.7207 2.45001 35C2.15319 36.3021 2 37.6432 2 39L38 39C38 37.6432 37.8468 36.3021 37.55 35Z" fill="black"/>
</svg>
