<svg width="40" height="40" viewBox="0 0 40 40" fill="none" xmlns="http://www.w3.org/2000/svg">
<path fill-rule="evenodd" clip-rule="evenodd" d="M16.9068 3.68825C9.68311 3.68825 3.68267 9.85777 3.68267 17.6509C3.68267 25.4441 9.68311 31.6136 16.9068 31.6136C19.2179 31.6136 21.3887 30.9891 23.2806 29.8876C24.7897 29.009 26.1242 27.825 27.2057 26.4095C29.0315 24.0198 30.131 20.9773 30.131 17.6509C30.131 9.85777 24.1305 3.68825 16.9068 3.68825ZM0 17.6509C0 7.98438 7.48965 0 16.9068 0C26.324 0 33.8136 7.98438 33.8136 17.6509C33.8136 21.4049 32.6893 24.8951 30.7653 27.7643L40 37.4534L37.3361 40L28.3865 30.61C27.4042 31.5588 26.3124 32.3887 25.1315 33.0762C22.6987 34.4926 19.8922 35.3019 16.9068 35.3019C7.48965 35.3019 0 27.3175 0 17.6509Z" fill="black"/>
</svg>
